<svg xmlns="http://www.w3.org/2000/svg" width="260" height="260" viewBox="0 0 68.792 68.792">
  <rect style="fill:#fff;stroke:#fffffc;stroke-width:4.0211375;stroke-linecap:square;stroke-linejoin:round;stroke-miterlimit:4;stroke-dasharray:none;stroke-opacity:1;fill-opacity:1" width="64.241" height="64.241" x="2.275" y="2.275" ry="9.755"/>
  <g transform="matrix(.87997 0 0 .87237 4.082 3.757)">
    <path style="fill:#fff;fill-opacity:1;stroke:none;stroke-width:6.42208;stroke-linecap:round;stroke-linejoin:round;stroke-miterlimit:4;stroke-dasharray:none;stroke-opacity:1" d="M49.422 22.177H19.42c-3.915 0-8.334 11.403-8.335 18.298 0 14.088 10.49 25.508 23.43 25.508s23.43-11.42 23.43-25.508c0-6.895-5.096-18.298-8.523-18.298Z"/>
    <ellipse style="fill:#fff;fill-opacity:1;stroke:none;stroke-width:5.19533;stroke-miterlimit:4;stroke-dasharray:none;stroke-opacity:1" cx="34.586" cy="23.805" rx="13.426" ry="14.434"/>
    <path style="color:#000;font-style:normal;font-variant:normal;font-weight:400;font-stretch:normal;font-size:medium;line-height:normal;font-family:sans-serif;font-variant-ligatures:normal;font-variant-position:normal;font-variant-caps:normal;font-variant-numeric:normal;font-variant-alternates:normal;font-variant-east-asian:normal;font-feature-settings:normal;font-variation-settings:normal;text-indent:0;text-align:start;text-decoration:none;text-decoration-line:none;text-decoration-style:solid;text-decoration-color:#000;letter-spacing:normal;word-spacing:normal;text-transform:none;writing-mode:lr-tb;direction:ltr;text-orientation:mixed;dominant-baseline:auto;baseline-shift:baseline;text-anchor:start;white-space:normal;shape-padding:0;shape-margin:0;inline-size:0;clip-rule:nonzero;display:inline;overflow:visible;visibility:visible;opacity:1;isolation:auto;mix-blend-mode:normal;color-interpolation:sRGB;color-interpolation-filters:linearRGB;solid-color:#000;solid-opacity:1;vector-effect:none;fill:#000;fill-opacity:1;fill-rule:nonzero;stroke:#000;stroke-width:.60396;stroke-linecap:round;stroke-linejoin:miter;stroke-miterlimit:4;stroke-dasharray:none;stroke-dashoffset:0;stroke-opacity:1;color-rendering:auto;image-rendering:auto;shape-rendering:auto;text-rendering:auto;enable-background:accumulate;stop-color:#000;stop-opacity:1" d="M53.213.848a2.646 2.646 0 0 0-1.909.775l-9.767 9.767a2.646 2.646 0 0 0 0 3.742 2.646 2.646 0 0 0 3.742 0l9.767-9.767a2.646 2.646 0 0 0 0-3.742 2.646 2.646 0 0 0-1.833-.775z"/>
    <path style="color:#000;font-style:normal;font-variant:normal;font-weight:400;font-stretch:normal;font-size:medium;line-height:normal;font-family:sans-serif;font-variant-ligatures:normal;font-variant-position:normal;font-variant-caps:normal;font-variant-numeric:normal;font-variant-alternates:normal;font-variant-east-asian:normal;font-feature-settings:normal;font-variation-settings:normal;text-indent:0;text-align:start;text-decoration:none;text-decoration-line:none;text-decoration-style:solid;text-decoration-color:#000;letter-spacing:normal;word-spacing:normal;text-transform:none;writing-mode:lr-tb;direction:ltr;text-orientation:mixed;dominant-baseline:auto;baseline-shift:baseline;text-anchor:start;white-space:normal;shape-padding:0;shape-margin:0;inline-size:0;clip-rule:nonzero;display:inline;overflow:visible;visibility:visible;opacity:1;isolation:auto;mix-blend-mode:normal;color-interpolation:sRGB;color-interpolation-filters:linearRGB;solid-color:#000;solid-opacity:1;vector-effect:none;fill:#000;fill-opacity:1;fill-rule:nonzero;stroke:#000600;stroke-width:.60396;stroke-linecap:round;stroke-linejoin:miter;stroke-miterlimit:4;stroke-dasharray:none;stroke-dashoffset:0;stroke-opacity:1;color-rendering:auto;image-rendering:auto;shape-rendering:auto;text-rendering:auto;enable-background:accumulate;stop-color:#000;stop-opacity:1" d="M16.235.848a2.646 2.646 0 0 0-1.909.775 2.646 2.646 0 0 0 0 3.742l9.767 9.767a2.646 2.646 0 0 0 3.742 0 2.646 2.646 0 0 0 0-3.742l-9.767-9.767a2.646 2.646 0 0 0-1.833-.775Z"/>
    <ellipse style="fill:#7390af;fill-opacity:1;stroke:#000;stroke-width:5.26973;stroke-miterlimit:4;stroke-dasharray:none;stroke-opacity:1" cx="34.595" cy="23.016" rx="11.042" ry="11.213"/>
    <path style="color:#000;font-style:normal;font-variant:normal;font-weight:400;font-stretch:normal;font-size:medium;line-height:normal;font-family:sans-serif;font-variant-ligatures:normal;font-variant-position:normal;font-variant-caps:normal;font-variant-numeric:normal;font-variant-alternates:normal;font-variant-east-asian:normal;font-feature-settings:normal;font-variation-settings:normal;text-indent:0;text-align:start;text-decoration:none;text-decoration-line:none;text-decoration-style:solid;text-decoration-color:#000;letter-spacing:normal;word-spacing:normal;text-transform:none;writing-mode:lr-tb;direction:ltr;text-orientation:mixed;dominant-baseline:auto;baseline-shift:baseline;text-anchor:start;white-space:normal;shape-padding:0;shape-margin:0;inline-size:0;clip-rule:nonzero;display:inline;overflow:visible;visibility:visible;isolation:auto;mix-blend-mode:normal;color-interpolation:sRGB;color-interpolation-filters:linearRGB;solid-color:#000;solid-opacity:1;vector-effect:none;fill:#000;fill-opacity:1;fill-rule:nonzero;stroke:#000;stroke-width:.60396;stroke-linecap:round;stroke-linejoin:round;stroke-miterlimit:4;stroke-dasharray:none;stroke-dashoffset:0;stroke-opacity:1;color-rendering:auto;image-rendering:auto;shape-rendering:auto;text-rendering:auto;enable-background:accumulate;stop-color:#000" d="M4.002 16.123a2.646 2.646 0 0 0-.746.106 2.646 2.646 0 0 0-1.802 3.278L4.2 28.948a2.646 2.646 0 0 0 1.634 1.748l9.221 3.362a2.646 2.646 0 0 0 3.392-1.58 2.646 2.646 0 0 0-1.58-3.39l-7.961-2.904-2.368-8.152a2.646 2.646 0 0 0-2.535-1.91ZM15.927 48.471a2.646 2.646 0 0 0-.873.16l-9.22 3.362a2.646 2.646 0 0 0-1.635 1.746l-2.745 9.443a2.646 2.646 0 0 0 1.802 3.278 2.646 2.646 0 0 0 3.279-1.802l2.37-8.153 7.961-2.903a2.646 2.646 0 0 0 1.58-3.392 2.646 2.646 0 0 0-2.519-1.739zM16.617 38.13l-9.816.072a2.646 2.646 0 0 0-2.074 1.03L-.132 45.53a2.646 2.646 0 0 0 .48 3.71 2.646 2.646 0 0 0 3.71-.478l4.072-5.28 8.525-.062a2.646 2.646 0 0 0 2.628-2.666 2.646 2.646 0 0 0-2.666-2.625ZM64.728 16.125a2.646 2.646 0 0 0-2.472 1.907l-2.37 8.152-7.962 2.903a2.646 2.646 0 0 0-1.578 3.392 2.646 2.646 0 0 0 3.392 1.579l9.22-3.362a2.646 2.646 0 0 0 1.635-1.746l2.743-9.443a2.646 2.646 0 0 0-1.802-3.278 2.646 2.646 0 0 0-.806-.104ZM52.805 48.471a2.646 2.646 0 0 0-2.459 1.74 2.646 2.646 0 0 0 1.58 3.39l7.96 2.904 2.37 8.153a2.646 2.646 0 0 0 3.28 1.802 2.646 2.646 0 0 0 1.802-3.278l-2.745-9.441a2.646 2.646 0 0 0-1.634-1.748l-9.22-3.362a2.646 2.646 0 0 0-.934-.16zM52.176 38.13a2.646 2.646 0 0 0-2.666 2.627 2.646 2.646 0 0 0 2.627 2.664l8.525.064 4.072 5.278a2.646 2.646 0 0 0 3.711.479 2.646 2.646 0 0 0 .48-3.71l-4.86-6.3a2.646 2.646 0 0 0-2.076-1.03Z"/>
    <path style="fill:#7390af;fill-opacity:1;stroke:#000;stroke-width:6.42161;stroke-linecap:round;stroke-linejoin:round;stroke-miterlimit:4;stroke-dasharray:none;stroke-opacity:1" d="M47.917 25.945H21.016c-3.226 0-5.855 9.396-5.855 15.077 0 11.608 8.643 21.018 19.305 21.018 10.663 0 19.306-9.41 19.306-21.018 0-5.68-3.03-15.077-5.855-15.077z"/>
    <path style="fill:none;stroke:#000;stroke-width:5.03642;stroke-linecap:round;stroke-linejoin:miter;stroke-miterlimit:4;stroke-dasharray:none;stroke-opacity:1" d="M34.47 33.168v26.878"/>
  </g>
</svg>
