<svg xmlns="http://www.w3.org/2000/svg" width="260" height="260" viewBox="0 0 68.792 68.792">
  <g style="opacity:1;fill:#000;stroke:red;stroke-width:3.96875;stroke-miterlimit:4;stroke-dasharray:none;stroke-opacity:1">
    <path style="color:#000;font-style:normal;font-variant:normal;font-weight:400;font-stretch:normal;font-size:medium;line-height:normal;font-family:sans-serif;font-variant-ligatures:normal;font-variant-position:normal;font-variant-caps:normal;font-variant-numeric:normal;font-variant-alternates:normal;font-variant-east-asian:normal;font-feature-settings:normal;font-variation-settings:normal;text-indent:0;text-align:start;text-decoration:none;text-decoration-line:none;text-decoration-style:solid;text-decoration-color:#000;letter-spacing:normal;word-spacing:normal;text-transform:none;writing-mode:lr-tb;direction:ltr;text-orientation:mixed;dominant-baseline:auto;baseline-shift:baseline;text-anchor:start;white-space:normal;shape-padding:0;shape-margin:0;inline-size:0;clip-rule:nonzero;display:inline;overflow:visible;visibility:visible;isolation:auto;mix-blend-mode:normal;color-interpolation:sRGB;color-interpolation-filters:linearRGB;solid-color:#000;solid-opacity:1;vector-effect:none;fill:#000;fill-opacity:1;fill-rule:nonzero;stroke:#fff;stroke-width:15;stroke-linecap:butt;stroke-linejoin:miter;stroke-miterlimit:4;stroke-dasharray:none;stroke-dashoffset:0;stroke-opacity:1;color-rendering:auto;image-rendering:auto;shape-rendering:auto;text-rendering:auto;enable-background:accumulate;stop-color:#000;stop-opacity:1" d="M194.336 13.39a7.418 7.418 0 0 0-5.285 2.178l-31.979 31.979c-7.534-5.318-16.579-8.453-26.375-8.46H130.342c-9.552.07-18.372 3.11-25.764 8.237L72.814 15.568a7.418 7.418 0 0 0-10.488 0 7.418 7.418 0 0 0 0 10.49l31.479 31.48c-6.909 8.854-11.04 20.176-11.04 32.358 0 .145.007.558.008.747H79.43c-6.65 0-11.294 4.357-14.618 8.96-2.367 3.28-4.332 7.092-6.05 11.26l-27.219-9.924-9.316-32.074a7.418 7.418 0 0 0-7.368-5.344c-.62.022-1.234.121-1.83.295a7.418 7.418 0 0 0-5.049 9.192l10.372 35.683a7.419 7.419 0 0 0 4.576 4.9L54.1 124.958c-1.902 7.223-3.216 14.75-3.825 21.79l-24.548.22a7.42 7.42 0 0 0-5.819 2.885L1.543 173.666a7.42 7.42 0 0 0 11.752 9.059l16.152-20.952 20.666-.185a92.123 92.123 0 0 0 5.453 25.45l-32.638 11.896a7.419 7.419 0 0 0-4.584 4.894L7.973 239.514a7.418 7.418 0 1 0 14.246 4.14l9.324-32.066L61.84 200.54c14.113 24.72 39.372 41.363 68.428 41.363 28.992 0 54.204-16.572 68.337-41.203l29.85 10.887 9.322 32.074a7.418 7.418 0 0 0 9.192 5.049 7.418 7.418 0 0 0 5.056-9.191l-10.37-35.684a7.419 7.419 0 0 0-4.585-4.902l-32.16-11.723c2.978-8.037 4.863-16.65 5.492-25.62l20.149.182 16.16 20.952a7.417 7.417 0 0 0 10.4 1.343 7.42 7.42 0 0 0 1.344-10.402l-18.367-23.814a7.416 7.416 0 0 0-5.817-2.885l-24.044-.215c-.686-7.093-2.182-14.63-4.217-21.838l31.06-11.322a7.419 7.419 0 0 0 4.584-4.9l10.371-35.684a7.418 7.418 0 0 0-7.255-9.487 7.418 7.418 0 0 0-6.993 5.344l-9.322 32.074-27.297 9.954c-1.765-4.172-3.737-7.97-6.017-11.215-3.176-4.521-7.251-9.035-14.034-9.035h-2.546c0-.19.008-.602.008-.747 0-12.048-4.035-23.256-10.803-32.064l31.773-31.773a7.418 7.418 0 0 0 0-10.49 7.418 7.418 0 0 0-5.203-2.178z" transform="matrix(.25023 0 0 .25023 1.866 1.555)"/>
  </g>
  <g style="opacity:1;stroke-width:1;stroke-miterlimit:4;stroke-dasharray:none">
    <path style="color:#000;font-style:normal;font-variant:normal;font-weight:400;font-stretch:normal;font-size:medium;line-height:normal;font-family:sans-serif;font-variant-ligatures:normal;font-variant-position:normal;font-variant-caps:normal;font-variant-numeric:normal;font-variant-alternates:normal;font-variant-east-asian:normal;font-feature-settings:normal;font-variation-settings:normal;text-indent:0;text-align:start;text-decoration:none;text-decoration-line:none;text-decoration-style:solid;text-decoration-color:#000;letter-spacing:normal;word-spacing:normal;text-transform:none;writing-mode:lr-tb;direction:ltr;text-orientation:mixed;dominant-baseline:auto;baseline-shift:baseline;text-anchor:start;white-space:normal;shape-padding:0;shape-margin:0;inline-size:0;clip-rule:nonzero;display:inline;overflow:visible;visibility:visible;isolation:auto;mix-blend-mode:normal;color-interpolation:sRGB;color-interpolation-filters:linearRGB;solid-color:#000;solid-opacity:1;vector-effect:none;fill:#000;fill-opacity:1;fill-rule:nonzero;stroke:none;stroke-width:3.77953;stroke-linecap:butt;stroke-linejoin:miter;stroke-miterlimit:4;stroke-dasharray:none;stroke-dashoffset:0;stroke-opacity:1;color-rendering:auto;image-rendering:auto;shape-rendering:auto;text-rendering:auto;enable-background:accumulate;stop-color:#000;stop-opacity:1" d="M194.336 13.39a7.418 7.418 0 0 0-5.285 2.178l-31.979 31.979c-7.534-5.318-16.579-8.453-26.375-8.46H130.342c-9.552.07-18.372 3.11-25.764 8.237L72.814 15.568a7.418 7.418 0 0 0-10.488 0 7.418 7.418 0 0 0 0 10.49l31.479 31.48c-6.909 8.854-11.04 20.176-11.04 32.358 0 .145.007.558.008.747H79.43c-6.65 0-11.294 4.357-14.618 8.96-2.367 3.28-4.332 7.092-6.05 11.26l-27.219-9.924-9.316-32.074a7.418 7.418 0 0 0-7.368-5.344c-.62.022-1.234.121-1.83.295a7.418 7.418 0 0 0-5.049 9.192l10.372 35.683a7.419 7.419 0 0 0 4.576 4.9L54.1 124.958c-1.902 7.223-3.216 14.75-3.825 21.79l-24.548.22a7.42 7.42 0 0 0-5.819 2.885L1.543 173.666a7.42 7.42 0 0 0 11.752 9.059l16.152-20.952 20.666-.185a92.123 92.123 0 0 0 5.453 25.45l-32.638 11.896a7.419 7.419 0 0 0-4.584 4.894L7.973 239.514a7.418 7.418 0 1 0 14.246 4.14l9.324-32.066L61.84 200.54c14.113 24.72 39.372 41.363 68.428 41.363 28.992 0 54.204-16.572 68.337-41.203l29.85 10.887 9.322 32.074a7.418 7.418 0 0 0 9.192 5.049 7.418 7.418 0 0 0 5.056-9.191l-10.37-35.684a7.419 7.419 0 0 0-4.585-4.902l-32.16-11.723c2.978-8.037 4.863-16.65 5.492-25.62l20.149.182 16.16 20.952a7.417 7.417 0 0 0 10.4 1.343 7.42 7.42 0 0 0 1.344-10.402l-18.367-23.814a7.416 7.416 0 0 0-5.817-2.885l-24.044-.215c-.686-7.093-2.182-14.63-4.217-21.838l31.06-11.322a7.419 7.419 0 0 0 4.584-4.9l10.371-35.684a7.418 7.418 0 0 0-7.255-9.487 7.418 7.418 0 0 0-6.993 5.344l-9.322 32.074-27.297 9.954c-1.765-4.172-3.737-7.97-6.017-11.215-3.176-4.521-7.251-9.035-14.034-9.035h-2.546c0-.19.008-.602.008-.747 0-12.048-4.035-23.256-10.803-32.064l31.773-31.773a7.418 7.418 0 0 0 0-10.49 7.418 7.418 0 0 0-5.203-2.178z" transform="matrix(.25023 0 0 .25023 1.866 1.555)"/>
  </g>
  <path style="color:#000;font-style:normal;font-variant:normal;font-weight:400;font-stretch:normal;font-size:medium;line-height:normal;font-family:sans-serif;font-variant-ligatures:normal;font-variant-position:normal;font-variant-caps:normal;font-variant-numeric:normal;font-variant-alternates:normal;font-variant-east-asian:normal;font-feature-settings:normal;font-variation-settings:normal;text-indent:0;text-align:start;text-decoration:none;text-decoration-line:none;text-decoration-style:solid;text-decoration-color:#000;letter-spacing:normal;word-spacing:normal;text-transform:none;writing-mode:lr-tb;direction:ltr;text-orientation:mixed;dominant-baseline:auto;baseline-shift:baseline;text-anchor:start;white-space:normal;shape-padding:0;shape-margin:0;inline-size:0;clip-rule:nonzero;display:inline;overflow:visible;visibility:visible;opacity:1;isolation:auto;mix-blend-mode:normal;color-interpolation:sRGB;color-interpolation-filters:linearRGB;solid-color:#000;solid-opacity:1;vector-effect:none;fill:#7390af;fill-opacity:1;fill-rule:nonzero;stroke:none;stroke-width:3.92568;stroke-linecap:round;stroke-linejoin:round;stroke-miterlimit:4;stroke-dasharray:none;stroke-dashoffset:0;stroke-opacity:1;color-rendering:auto;image-rendering:auto;shape-rendering:auto;text-rendering:auto;enable-background:accumulate;stop-color:#000;stop-opacity:1" d="M21.016 27.908c.073 0 .032.005-.092.1-.124.096-.332.282-.592.642-.26.361-.538.845-.81 1.414-.274.57-.543 1.226-.788 1.932a27.24 27.24 0 0 0-.664 2.245c-.197.78-.368 1.582-.508 2.375-.14.793-.249 1.577-.323 2.322-.075.744-.114 1.449-.114 2.083a21.378 21.378 0 0 0 .308 3.61 20.525 20.525 0 0 0 .886 3.373 19.85 19.85 0 0 0 1.405 3.075 19.187 19.187 0 0 0 1.867 2.72 18.395 18.395 0 0 0 2.27 2.306 17.48 17.48 0 0 0 2.615 1.833 16.62 16.62 0 0 0 2.901 1.302 16.02 16.02 0 0 0 3.13.713V33.168a1.963 1.963 0 0 1 .001-.054 1.963 1.963 0 0 1 .003-.06 1.963 1.963 0 0 1 .004-.06 1.963 1.963 0 0 1 .006-.06 1.963 1.963 0 0 1 .009-.061 1.963 1.963 0 0 1 .01-.06 1.963 1.963 0 0 1 .011-.059 1.963 1.963 0 0 1 .014-.059 1.963 1.963 0 0 1 .016-.059 1.963 1.963 0 0 1 .017-.058 1.963 1.963 0 0 1 .02-.057 1.963 1.963 0 0 1 .02-.057 1.963 1.963 0 0 1 .023-.056 1.963 1.963 0 0 1 .024-.056 1.963 1.963 0 0 1 .026-.055 1.963 1.963 0 0 1 .028-.053 1.963 1.963 0 0 1 .03-.053 1.963 1.963 0 0 1 .03-.052 1.963 1.963 0 0 1 .033-.052 1.963 1.963 0 0 1 .034-.05 1.963 1.963 0 0 1 .036-.049 1.963 1.963 0 0 1 .037-.047 1.963 1.963 0 0 1 .038-.047 1.963 1.963 0 0 1 .04-.046 1.963 1.963 0 0 1 .042-.044 1.963 1.963 0 0 1 .043-.043 1.963 1.963 0 0 1 .044-.041 1.963 1.963 0 0 1 .045-.04 1.963 1.963 0 0 1 .047-.04 1.963 1.963 0 0 1 .047-.037 1.963 1.963 0 0 1 .05-.035 1.963 1.963 0 0 1 .049-.035 1.963 1.963 0 0 1 .051-.033 1.963 1.963 0 0 1 .052-.03 1.963 1.963 0 0 1 .053-.03 1.963 1.963 0 0 1 .054-.028 1.963 1.963 0 0 1 .055-.026 1.963 1.963 0 0 1 .055-.025 1.963 1.963 0 0 1 .056-.023 1.963 1.963 0 0 1 .057-.02 1.963 1.963 0 0 1 .057-.02 1.963 1.963 0 0 1 .058-.018 1.963 1.963 0 0 1 .059-.015 1.963 1.963 0 0 1 .06-.014 1.963 1.963 0 0 1 .058-.012 1.963 1.963 0 0 1 .06-.01 1.963 1.963 0 0 1 .06-.009 1.963 1.963 0 0 1 .06-.006 1.963 1.963 0 0 1 .06-.005 1.963 1.963 0 0 1 .061-.003 1.963 1.963 0 0 1 .06 0 1.963 1.963 0 0 1 .054 0 1.963 1.963 0 0 1 .06.002 1.963 1.963 0 0 1 .06.005 1.963 1.963 0 0 1 .06.006 1.963 1.963 0 0 1 .061.009 1.963 1.963 0 0 1 .06.01 1.963 1.963 0 0 1 .06.011 1.963 1.963 0 0 1 .058.014 1.963 1.963 0 0 1 .059.016 1.963 1.963 0 0 1 .058.017 1.963 1.963 0 0 1 .058.019 1.963 1.963 0 0 1 .057.02 1.963 1.963 0 0 1 .055.023 1.963 1.963 0 0 1 .056.025 1.963 1.963 0 0 1 .055.026 1.963 1.963 0 0 1 .054.027 1.963 1.963 0 0 1 .053.03 1.963 1.963 0 0 1 .052.03 1.963 1.963 0 0 1 .05.033 1.963 1.963 0 0 1 .05.034 1.963 1.963 0 0 1 .05.036 1.963 1.963 0 0 1 .048.037 1.963 1.963 0 0 1 .047.04 1.963 1.963 0 0 1 .045.039 1.963 1.963 0 0 1 .044.041 1.963 1.963 0 0 1 .043.043 1.963 1.963 0 0 1 .042.044 1.963 1.963 0 0 1 .04.046 1.963 1.963 0 0 1 .039.046 1.963 1.963 0 0 1 .037.048 1.963 1.963 0 0 1 .036.049 1.963 1.963 0 0 1 .034.05 1.963 1.963 0 0 1 .033.05 1.963 1.963 0 0 1 .031.053 1.963 1.963 0 0 1 .03.052 1.963 1.963 0 0 1 .028.054 1.963 1.963 0 0 1 .026.055 1.963 1.963 0 0 1 .024.055 1.963 1.963 0 0 1 .023.056 1.963 1.963 0 0 1 .021.057 1.963 1.963 0 0 1 .02.058 1.963 1.963 0 0 1 .017.058 1.963 1.963 0 0 1 .016.058 1.963 1.963 0 0 1 .014.06 1.963 1.963 0 0 1 .012.058 1.963 1.963 0 0 1 .01.06 1.963 1.963 0 0 1 .008.06 1.963 1.963 0 0 1 .007.06 1.963 1.963 0 0 1 .005.061 1.963 1.963 0 0 1 .002.06 1.963 1.963 0 0 1 .002.061v26.784a15.91 15.91 0 0 0 3.129-.714 16.285 16.285 0 0 0 2.9-1.303 17.04 17.04 0 0 0 2.614-1.834 17.942 17.942 0 0 0 2.27-2.306 18.8 18.8 0 0 0 1.865-2.719 19.53 19.53 0 0 0 1.405-3.074 20.17 20.17 0 0 0 .886-3.372 20.892 20.892 0 0 0 .308-3.609c0-.623-.045-1.319-.129-2.057a29.524 29.524 0 0 0-.36-2.31 33.82 33.82 0 0 0-.555-2.376 28.773 28.773 0 0 0-.709-2.255 20.654 20.654 0 0 0-.818-1.95c-.28-.577-.561-1.07-.822-1.442a2.964 2.964 0 0 0-.59-.64c-.053-.044-.078-.065-.067-.074.012-.01.061-.009.157-.009z" transform="translate(1.866 1.555) scale(.94576)"/>
  <path style="color:#000;font-style:normal;font-variant:normal;font-weight:400;font-stretch:normal;font-size:medium;line-height:normal;font-family:sans-serif;font-variant-ligatures:normal;font-variant-position:normal;font-variant-caps:normal;font-variant-numeric:normal;font-variant-alternates:normal;font-variant-east-asian:normal;font-feature-settings:normal;font-variation-settings:normal;text-indent:0;text-align:start;text-decoration:none;text-decoration-line:none;text-decoration-style:solid;text-decoration-color:#000;letter-spacing:normal;word-spacing:normal;text-transform:none;writing-mode:lr-tb;direction:ltr;text-orientation:mixed;dominant-baseline:auto;baseline-shift:baseline;text-anchor:start;white-space:normal;shape-padding:0;shape-margin:0;inline-size:0;clip-rule:nonzero;display:inline;overflow:visible;visibility:visible;opacity:1;isolation:auto;mix-blend-mode:normal;color-interpolation:sRGB;color-interpolation-filters:linearRGB;solid-color:#000;solid-opacity:1;vector-effect:none;fill:#7390af;fill-opacity:1;fill-rule:nonzero;stroke:none;stroke-width:4.83457;stroke-linecap:butt;stroke-linejoin:miter;stroke-miterlimit:4;stroke-dasharray:none;stroke-dashoffset:0;stroke-opacity:1;color-rendering:auto;image-rendering:auto;shape-rendering:auto;text-rendering:auto;enable-background:accumulate;stop-color:#000;stop-opacity:1" d="M34.521 15.178a7.23 7.23 0 0 0-3.005.675 7.656 7.656 0 0 0-1.322.783 8.05 8.05 0 0 0-1.157 1.038 8.428 8.428 0 0 0-.958 1.264 8.784 8.784 0 0 0-.726 1.46c-.2.516-.355 1.06-.46 1.626a9.621 9.621 0 0 0-.16 1.761v.198H42.41l.001-.198c0-.61-.056-1.2-.162-1.77a9.145 9.145 0 0 0-.463-1.631 8.773 8.773 0 0 0-.732-1.464 8.42 8.42 0 0 0-.964-1.266 8.034 8.034 0 0 0-1.165-1.038 7.643 7.643 0 0 0-1.33-.779 7.231 7.231 0 0 0-3.022-.66H34.521z" transform="translate(1.866 1.555) scale(.94576)"/>
</svg>
