<?xml version="1.0" encoding="UTF-8" standalone="no"?>
<svg
   xmlns:dc="http://purl.org/dc/elements/1.1/"
   xmlns:cc="http://creativecommons.org/ns#"
   xmlns:rdf="http://www.w3.org/1999/02/22-rdf-syntax-ns#"
   xmlns:svg="http://www.w3.org/2000/svg"
   xmlns="http://www.w3.org/2000/svg"
   xmlns:sodipodi="http://sodipodi.sourceforge.net/DTD/sodipodi-0.dtd"
   xmlns:inkscape="http://www.inkscape.org/namespaces/inkscape"
   width="260"
   height="260"
   viewBox="0 0 68.791665 68.791669"
   version="1.1"
   id="svg8"
   inkscape:version="1.0.1 (3bc2e813f5, 2020-09-07)"
   sodipodi:docname="bug-icon.svg">
  <defs
     id="defs2" />
  <sodipodi:namedview
     id="base"
     pagecolor="#ffffff"
     bordercolor="#666666"
     borderopacity="1.0"
     inkscape:pageopacity="0.0"
     inkscape:pageshadow="2"
     inkscape:zoom="1.979899"
     inkscape:cx="137.0157"
     inkscape:cy="148.12518"
     inkscape:document-units="mm"
     inkscape:current-layer="layer2"
     inkscape:document-rotation="0"
     showgrid="false"
     units="px"
     inkscape:window-width="1920"
     inkscape:window-height="1001"
     inkscape:window-x="-9"
     inkscape:window-y="-9"
     inkscape:window-maximized="1" />
  <metadata
     id="metadata5">
    <rdf:RDF>
      <cc:Work
         rdf:about="">
        <dc:format>image/svg+xml</dc:format>
        <dc:type
           rdf:resource="http://purl.org/dc/dcmitype/StillImage" />
        <dc:title></dc:title>
      </cc:Work>
    </rdf:RDF>
  </metadata>
  <g
     inkscape:groupmode="layer"
     id="layer5"
     inkscape:label="background" />
  <g
     inkscape:label="head"
     inkscape:groupmode="layer"
     id="layer1" />
  <g
     inkscape:groupmode="layer"
     id="layer2"
     inkscape:label="body">
    <g
       id="g1284"
       transform="matrix(0.95508914,0,0,0.95508914,1.2802734,0.78981291)">
      <path
         id="path833-4"
         style="fill:#ffffff;fill-opacity:1;stroke:none;stroke-width:6.42208;stroke-linecap:round;stroke-linejoin:round;stroke-miterlimit:4;stroke-dasharray:none;stroke-opacity:1"
         d="M 49.421807,22.17671 H 19.419525 c -3.914629,0 -8.333953,11.403785 -8.334067,18.297884 1.53e-4,14.087928 10.489943,25.508359 23.429703,25.508359 12.939761,0 23.429554,-11.420431 23.429705,-25.508359 C 57.944751,33.580495 52.849113,22.17671 49.421807,22.17671 Z"
         sodipodi:nodetypes="cccscc" />
      <ellipse
         style="fill:#ffffff;fill-opacity:1;stroke:none;stroke-width:5.19533;stroke-miterlimit:4;stroke-dasharray:none;stroke-opacity:1"
         id="path833-5-1-8"
         cx="34.58559"
         cy="23.805494"
         rx="13.426177"
         ry="14.43366" />
      <path
         style="color:#000000;font-style:normal;font-variant:normal;font-weight:normal;font-stretch:normal;font-size:medium;line-height:normal;font-family:sans-serif;font-variant-ligatures:normal;font-variant-position:normal;font-variant-caps:normal;font-variant-numeric:normal;font-variant-alternates:normal;font-variant-east-asian:normal;font-feature-settings:normal;font-variation-settings:normal;text-indent:0;text-align:start;text-decoration:none;text-decoration-line:none;text-decoration-style:solid;text-decoration-color:#000000;letter-spacing:normal;word-spacing:normal;text-transform:none;writing-mode:lr-tb;direction:ltr;text-orientation:mixed;dominant-baseline:auto;baseline-shift:baseline;text-anchor:start;white-space:normal;shape-padding:0;shape-margin:0;inline-size:0;clip-rule:nonzero;display:inline;overflow:visible;visibility:visible;opacity:1;isolation:auto;mix-blend-mode:normal;color-interpolation:sRGB;color-interpolation-filters:linearRGB;solid-color:#000000;solid-opacity:1;vector-effect:none;fill:#000000;fill-opacity:1;fill-rule:nonzero;stroke:#ffffff;stroke-width:1.32292;stroke-linecap:round;stroke-linejoin:miter;stroke-miterlimit:4;stroke-dasharray:none;stroke-dashoffset:0;stroke-opacity:1;color-rendering:auto;image-rendering:auto;shape-rendering:auto;text-rendering:auto;enable-background:accumulate;stop-color:#000000;stop-opacity:1"
         d="m 51.445301,2.8607296 a 2.6458333,2.6458333 0 0 0 -1.908625,0.774654 l -9.767212,9.7672114 a 2.6458333,2.6458333 0 0 0 0,3.741908 2.6458333,2.6458333 0 0 0 3.741909,0 l 9.76721,-9.7672114 a 2.6458333,2.6458333 0 0 0 0,-3.741908 2.6458333,2.6458333 0 0 0 -1.833282,-0.774654 z"
         id="path1123-6" />
      <path
         style="color:#000000;font-style:normal;font-variant:normal;font-weight:normal;font-stretch:normal;font-size:medium;line-height:normal;font-family:sans-serif;font-variant-ligatures:normal;font-variant-position:normal;font-variant-caps:normal;font-variant-numeric:normal;font-variant-alternates:normal;font-variant-east-asian:normal;font-feature-settings:normal;font-variation-settings:normal;text-indent:0;text-align:start;text-decoration:none;text-decoration-line:none;text-decoration-style:solid;text-decoration-color:#000000;letter-spacing:normal;word-spacing:normal;text-transform:none;writing-mode:lr-tb;direction:ltr;text-orientation:mixed;dominant-baseline:auto;baseline-shift:baseline;text-anchor:start;white-space:normal;shape-padding:0;shape-margin:0;inline-size:0;clip-rule:nonzero;display:inline;overflow:visible;visibility:visible;opacity:1;isolation:auto;mix-blend-mode:normal;color-interpolation:sRGB;color-interpolation-filters:linearRGB;solid-color:#000000;solid-opacity:1;vector-effect:none;fill:#000000;fill-opacity:1;fill-rule:nonzero;stroke:#ffffff;stroke-width:1.32292;stroke-linecap:round;stroke-linejoin:miter;stroke-miterlimit:4;stroke-dasharray:none;stroke-dashoffset:0;stroke-opacity:1;color-rendering:auto;image-rendering:auto;shape-rendering:auto;text-rendering:auto;enable-background:accumulate;stop-color:#000000;stop-opacity:1"
         d="m 17.914942,2.8607296 a 2.6458333,2.6458333 0 0 0 -1.908625,0.774654 2.6458333,2.6458333 0 0 0 0,3.741908 l 9.767212,9.7672114 a 2.6458333,2.6458333 0 0 0 3.741908,0 2.6458333,2.6458333 0 0 0 0,-3.741908 L 19.748225,3.6353836 a 2.6458333,2.6458333 0 0 0 -1.833283,-0.774654 z"
         id="path1119-9" />
      <ellipse
         style="fill:#7390af;fill-opacity:1;stroke:#000000;stroke-width:3.96875;stroke-miterlimit:4;stroke-dasharray:none;stroke-opacity:1"
         id="path833-5-1-0"
         cx="34.572155"
         cy="23.785488"
         rx="10.25635"
         ry="11.025972" />
      <path
         style="color:#000000;font-style:normal;font-variant:normal;font-weight:normal;font-stretch:normal;font-size:medium;line-height:normal;font-family:sans-serif;font-variant-ligatures:normal;font-variant-position:normal;font-variant-caps:normal;font-variant-numeric:normal;font-variant-alternates:normal;font-variant-east-asian:normal;font-feature-settings:normal;font-variation-settings:normal;text-indent:0;text-align:start;text-decoration:none;text-decoration-line:none;text-decoration-style:solid;text-decoration-color:#000000;letter-spacing:normal;word-spacing:normal;text-transform:none;writing-mode:lr-tb;direction:ltr;text-orientation:mixed;dominant-baseline:auto;baseline-shift:baseline;text-anchor:start;white-space:normal;shape-padding:0;shape-margin:0;inline-size:0;clip-rule:nonzero;display:inline;overflow:visible;visibility:visible;isolation:auto;mix-blend-mode:normal;color-interpolation:sRGB;color-interpolation-filters:linearRGB;solid-color:#000000;solid-opacity:1;vector-effect:none;fill:#000000;fill-opacity:1;fill-rule:nonzero;stroke:#ffffff;stroke-width:1.32292;stroke-linecap:round;stroke-linejoin:round;stroke-miterlimit:4;stroke-dasharray:none;stroke-dashoffset:0;stroke-opacity:1;color-rendering:auto;image-rendering:auto;shape-rendering:auto;text-rendering:auto;enable-background:accumulate;stop-color:#000000"
         d="m 4.0021065,16.122896 a 2.6458333,2.6458333 0 0 0 -0.7456771,0.10625 2.6458333,2.6458333 0 0 0 -1.8023751,3.278274 l 2.7450964,9.440737 a 2.6460979,2.6460979 0 0 0 1.6343079,1.748284 l 9.2205104,3.361342 A 2.6458333,2.6458333 0 0 0 18.44622,32.477566 2.6458333,2.6458333 0 0 0 16.866003,29.087247 L 8.9050303,26.183742 6.536636,18.03152 A 2.6458333,2.6458333 0 0 0 4.0021065,16.122896 Z"
         id="path1095" />
      <path
         style="color:#000000;font-style:normal;font-variant:normal;font-weight:normal;font-stretch:normal;font-size:medium;line-height:normal;font-family:sans-serif;font-variant-ligatures:normal;font-variant-position:normal;font-variant-caps:normal;font-variant-numeric:normal;font-variant-alternates:normal;font-variant-east-asian:normal;font-feature-settings:normal;font-variation-settings:normal;text-indent:0;text-align:start;text-decoration:none;text-decoration-line:none;text-decoration-style:solid;text-decoration-color:#000000;letter-spacing:normal;word-spacing:normal;text-transform:none;writing-mode:lr-tb;direction:ltr;text-orientation:mixed;dominant-baseline:auto;baseline-shift:baseline;text-anchor:start;white-space:normal;shape-padding:0;shape-margin:0;inline-size:0;clip-rule:nonzero;display:inline;overflow:visible;visibility:visible;isolation:auto;mix-blend-mode:normal;color-interpolation:sRGB;color-interpolation-filters:linearRGB;solid-color:#000000;solid-opacity:1;vector-effect:none;fill:#000000;fill-opacity:1;fill-rule:nonzero;stroke:#ffffff;stroke-width:1.32292;stroke-linecap:round;stroke-linejoin:round;stroke-miterlimit:4;stroke-dasharray:none;stroke-dashoffset:0;stroke-opacity:1;color-rendering:auto;image-rendering:auto;shape-rendering:auto;text-rendering:auto;enable-background:accumulate;stop-color:#000000"
         d="m 15.927145,48.470989 a 2.6458333,2.6458333 0 0 0 -0.873176,0.160339 l -9.2205104,3.361343 a 2.6460979,2.6460979 0 0 0 -1.6343079,1.746353 l -2.7450964,9.442668 a 2.6458333,2.6458333 0 0 0 1.8023751,3.278275 2.6458333,2.6458333 0 0 0 3.2782749,-1.802375 l 2.370326,-8.152222 7.9609727,-2.903504 a 2.6458333,2.6458333 0 0 0 1.580217,-3.392252 2.6458333,2.6458333 0 0 0 -2.519075,-1.738625 z"
         id="path1103" />
      <path
         style="color:#000000;font-style:normal;font-variant:normal;font-weight:normal;font-stretch:normal;font-size:medium;line-height:normal;font-family:sans-serif;font-variant-ligatures:normal;font-variant-position:normal;font-variant-caps:normal;font-variant-numeric:normal;font-variant-alternates:normal;font-variant-east-asian:normal;font-feature-settings:normal;font-variation-settings:normal;text-indent:0;text-align:start;text-decoration:none;text-decoration-line:none;text-decoration-style:solid;text-decoration-color:#000000;letter-spacing:normal;word-spacing:normal;text-transform:none;writing-mode:lr-tb;direction:ltr;text-orientation:mixed;dominant-baseline:auto;baseline-shift:baseline;text-anchor:start;white-space:normal;shape-padding:0;shape-margin:0;inline-size:0;clip-rule:nonzero;display:inline;overflow:visible;visibility:visible;isolation:auto;mix-blend-mode:normal;color-interpolation:sRGB;color-interpolation-filters:linearRGB;solid-color:#000000;solid-opacity:1;vector-effect:none;fill:#000000;fill-opacity:1;fill-rule:nonzero;stroke:#ffffff;stroke-width:1.32292;stroke-linecap:round;stroke-linejoin:round;stroke-miterlimit:4;stroke-dasharray:none;stroke-dashoffset:0;stroke-opacity:1;color-rendering:auto;image-rendering:auto;shape-rendering:auto;text-rendering:auto;enable-background:accumulate;stop-color:#000000"
         d="m 16.6168,38.130031 -9.8155065,0.07148 A 2.6460979,2.6460979 0 0 0 4.7265338,39.23116 l -4.85849232,6.29962 a 2.6458333,2.6458333 0 0 0 0.47908791,3.711 2.6458333,2.6458333 0 0 0 3.71099941,-0.479088 l 4.0722473,-5.279627 8.5250599,-0.06182 A 2.6458333,2.6458333 0 0 0 19.282692,40.755356 2.6458333,2.6458333 0 0 0 16.6168,38.130031 Z"
         id="path1099" />
      <path
         style="color:#000000;font-style:normal;font-variant:normal;font-weight:normal;font-stretch:normal;font-size:medium;line-height:normal;font-family:sans-serif;font-variant-ligatures:normal;font-variant-position:normal;font-variant-caps:normal;font-variant-numeric:normal;font-variant-alternates:normal;font-variant-east-asian:normal;font-feature-settings:normal;font-variation-settings:normal;text-indent:0;text-align:start;text-decoration:none;text-decoration-line:none;text-decoration-style:solid;text-decoration-color:#000000;letter-spacing:normal;word-spacing:normal;text-transform:none;writing-mode:lr-tb;direction:ltr;text-orientation:mixed;dominant-baseline:auto;baseline-shift:baseline;text-anchor:start;white-space:normal;shape-padding:0;shape-margin:0;inline-size:0;clip-rule:nonzero;display:inline;overflow:visible;visibility:visible;isolation:auto;mix-blend-mode:normal;color-interpolation:sRGB;color-interpolation-filters:linearRGB;solid-color:#000000;solid-opacity:1;vector-effect:none;fill:#000000;fill-opacity:1;fill-rule:nonzero;stroke:#ffffff;stroke-width:1.32292;stroke-linecap:round;stroke-linejoin:round;stroke-miterlimit:4;stroke-dasharray:none;stroke-dashoffset:0;stroke-opacity:1;color-rendering:auto;image-rendering:auto;shape-rendering:auto;text-rendering:auto;enable-background:accumulate;stop-color:#000000"
         d="m 64.72843,16.124828 a 2.6458333,2.6458333 0 0 0 -2.472711,1.906692 l -2.370326,8.152222 -7.960974,2.903505 a 2.6458333,2.6458333 0 0 0 -1.578285,3.392251 2.6458333,2.6458333 0 0 0 3.392252,1.578285 l 9.22051,-3.361342 a 2.6460979,2.6460979 0 0 0 1.634308,-1.746352 L 67.336369,19.50742 A 2.6458333,2.6458333 0 0 0 65.533993,16.229146 2.6458333,2.6458333 0 0 0 64.72843,16.124828 Z"
         id="path1115" />
      <path
         style="color:#000000;font-style:normal;font-variant:normal;font-weight:normal;font-stretch:normal;font-size:medium;line-height:normal;font-family:sans-serif;font-variant-ligatures:normal;font-variant-position:normal;font-variant-caps:normal;font-variant-numeric:normal;font-variant-alternates:normal;font-variant-east-asian:normal;font-feature-settings:normal;font-variation-settings:normal;text-indent:0;text-align:start;text-decoration:none;text-decoration-line:none;text-decoration-style:solid;text-decoration-color:#000000;letter-spacing:normal;word-spacing:normal;text-transform:none;writing-mode:lr-tb;direction:ltr;text-orientation:mixed;dominant-baseline:auto;baseline-shift:baseline;text-anchor:start;white-space:normal;shape-padding:0;shape-margin:0;inline-size:0;clip-rule:nonzero;display:inline;overflow:visible;visibility:visible;isolation:auto;mix-blend-mode:normal;color-interpolation:sRGB;color-interpolation-filters:linearRGB;solid-color:#000000;solid-opacity:1;vector-effect:none;fill:#000000;fill-opacity:1;fill-rule:nonzero;stroke:#ffffff;stroke-width:1.32292;stroke-linecap:round;stroke-linejoin:round;stroke-miterlimit:4;stroke-dasharray:none;stroke-dashoffset:0;stroke-opacity:1;color-rendering:auto;image-rendering:auto;shape-rendering:auto;text-rendering:auto;enable-background:accumulate;stop-color:#000000"
         d="m 52.805324,48.470989 a 2.6458333,2.6458333 0 0 0 -2.45919,1.740556 2.6458333,2.6458333 0 0 0 1.580218,3.390321 l 7.959041,2.903504 2.370326,8.152222 a 2.6458333,2.6458333 0 0 0 3.280206,1.802375 2.6458333,2.6458333 0 0 0 1.802376,-3.278275 l -2.745097,-9.440736 a 2.6460979,2.6460979 0 0 0 -1.634308,-1.748285 l -9.22051,-3.361343 a 2.6458333,2.6458333 0 0 0 -0.933062,-0.160339 z"
         id="path1107" />
      <path
         style="color:#000000;font-style:normal;font-variant:normal;font-weight:normal;font-stretch:normal;font-size:medium;line-height:normal;font-family:sans-serif;font-variant-ligatures:normal;font-variant-position:normal;font-variant-caps:normal;font-variant-numeric:normal;font-variant-alternates:normal;font-variant-east-asian:normal;font-feature-settings:normal;font-variation-settings:normal;text-indent:0;text-align:start;text-decoration:none;text-decoration-line:none;text-decoration-style:solid;text-decoration-color:#000000;letter-spacing:normal;word-spacing:normal;text-transform:none;writing-mode:lr-tb;direction:ltr;text-orientation:mixed;dominant-baseline:auto;baseline-shift:baseline;text-anchor:start;white-space:normal;shape-padding:0;shape-margin:0;inline-size:0;clip-rule:nonzero;display:inline;overflow:visible;visibility:visible;isolation:auto;mix-blend-mode:normal;color-interpolation:sRGB;color-interpolation-filters:linearRGB;solid-color:#000000;solid-opacity:1;vector-effect:none;fill:#000000;fill-opacity:1;fill-rule:nonzero;stroke:#ffffff;stroke-width:1.32292;stroke-linecap:round;stroke-linejoin:round;stroke-miterlimit:4;stroke-dasharray:none;stroke-dashoffset:0;stroke-opacity:1;color-rendering:auto;image-rendering:auto;shape-rendering:auto;text-rendering:auto;enable-background:accumulate;stop-color:#000000"
         d="m 52.175555,38.130031 a 2.6458333,2.6458333 0 0 0 -2.665893,2.627256 2.6458333,2.6458333 0 0 0 2.627256,2.663961 l 8.525061,0.06375 4.072246,5.277695 a 2.6458333,2.6458333 0 0 0 3.711001,0.479088 2.6458333,2.6458333 0 0 0 0.479087,-3.709068 L 64.065821,39.23116 A 2.6460979,2.6460979 0 0 0 61.98913,38.201507 Z"
         id="path1111" />
      <path
         id="path833-2"
         style="fill:#7390af;fill-opacity:1;stroke:#000000;stroke-width:5.29167;stroke-linecap:round;stroke-linejoin:round;stroke-miterlimit:4;stroke-dasharray:none;stroke-opacity:1"
         d="M 47.917218,25.944835 H 21.015757 c -3.225583,0 -5.854829,9.396513 -5.854922,15.077126 1.25e-4,11.608199 8.643524,21.018428 19.305653,21.018428 10.66213,0 19.305531,-9.410229 19.305655,-21.018428 -9.5e-5,-5.680613 -3.030887,-15.077126 -5.854925,-15.077126 z"
         sodipodi:nodetypes="cccscc" />
      <path
         style="fill:none;stroke:#000000;stroke-width:3.92544;stroke-linecap:round;stroke-linejoin:miter;stroke-miterlimit:4;stroke-dasharray:none;stroke-opacity:1"
         d="M 34.470143,33.167765 V 60.046481"
         id="path877-2"
         sodipodi:nodetypes="cc" />
    </g>
  </g>
</svg>
