<svg xmlns="http://www.w3.org/2000/svg" width="900" height="260" viewBox="0 0 238.126 68.792"><g transform="matrix(.85954 0 0 .85953 4.604 3.627)"><path style="fill:#fff;fill-opacity:0;stroke:none;stroke-width:6.42208;stroke-linecap:round;stroke-linejoin:round;stroke-miterlimit:4;stroke-dasharray:none;stroke-opacity:1" d="M49.422 22.177H19.42c-3.915 0-8.334 11.403-8.335 18.298 0 14.088 10.49 25.508 23.43 25.508s23.43-11.42 23.43-25.508c0-6.895-5.096-18.298-8.523-18.298z" fill="none"/><ellipse style="fill:#fff;fill-opacity:0;stroke:none;stroke-width:5.19533;stroke-miterlimit:4;stroke-dasharray:none;stroke-opacity:1" cx="34.586" cy="23.805" rx="13.426" ry="14.434" fill="none"/><path style="color:#000;font-style:normal;font-variant:normal;font-weight:400;font-stretch:normal;font-size:medium;line-height:normal;font-family:sans-serif;font-variant-ligatures:normal;font-variant-position:normal;font-variant-caps:normal;font-variant-numeric:normal;font-variant-alternates:normal;font-variant-east-asian:normal;font-feature-settings:normal;font-variation-settings:normal;text-indent:0;text-align:start;text-decoration:none;text-decoration-line:none;text-decoration-style:solid;text-decoration-color:#000;letter-spacing:normal;word-spacing:normal;text-transform:none;writing-mode:lr-tb;direction:ltr;text-orientation:mixed;dominant-baseline:auto;baseline-shift:baseline;text-anchor:start;white-space:normal;shape-padding:0;shape-margin:0;inline-size:0;clip-rule:nonzero;display:inline;overflow:visible;visibility:visible;opacity:1;isolation:auto;mix-blend-mode:normal;color-interpolation:sRGB;color-interpolation-filters:linearRGB;solid-color:#000;solid-opacity:1;vector-effect:none;fill:#000;fill-opacity:1;fill-rule:nonzero;stroke:#fff;stroke-width:1.32292;stroke-linecap:round;stroke-linejoin:miter;stroke-miterlimit:4;stroke-dasharray:none;stroke-dashoffset:0;stroke-opacity:0;color-rendering:auto;image-rendering:auto;shape-rendering:auto;text-rendering:auto;enable-background:accumulate;stop-color:#000;stop-opacity:1" d="M51.445 2.86a2.646 2.646 0 0 0-1.908.775l-9.768 9.768a2.646 2.646 0 0 0 0 3.742 2.646 2.646 0 0 0 3.742 0l9.768-9.768a2.646 2.646 0 0 0 0-3.742 2.646 2.646 0 0 0-1.834-.774zm-33.53 0a2.646 2.646 0 0 0-1.909.775 2.646 2.646 0 0 0 0 3.742l9.768 9.768a2.646 2.646 0 0 0 3.741 0 2.646 2.646 0 0 0 0-3.742l-9.767-9.768a2.646 2.646 0 0 0-1.833-.774Z"/><ellipse style="fill:#6595a8;fill-opacity:1;stroke:#000;stroke-width:5.22569;stroke-miterlimit:4;stroke-dasharray:none;stroke-opacity:1" cx="34.572" cy="23.785" rx="10.256" ry="11.026"/><path style="color:#000;font-style:normal;font-variant:normal;font-weight:400;font-stretch:normal;font-size:medium;line-height:normal;font-family:sans-serif;font-variant-ligatures:normal;font-variant-position:normal;font-variant-caps:normal;font-variant-numeric:normal;font-variant-alternates:normal;font-variant-east-asian:normal;font-feature-settings:normal;font-variation-settings:normal;text-indent:0;text-align:start;text-decoration:none;text-decoration-line:none;text-decoration-style:solid;text-decoration-color:#000;letter-spacing:normal;word-spacing:normal;text-transform:none;writing-mode:lr-tb;direction:ltr;text-orientation:mixed;dominant-baseline:auto;baseline-shift:baseline;text-anchor:start;white-space:normal;shape-padding:0;shape-margin:0;inline-size:0;clip-rule:nonzero;display:inline;overflow:visible;visibility:visible;isolation:auto;mix-blend-mode:normal;color-interpolation:sRGB;color-interpolation-filters:linearRGB;solid-color:#000;solid-opacity:1;vector-effect:none;fill:#000;fill-opacity:1;fill-rule:nonzero;stroke:#fff;stroke-width:1.32292;stroke-linecap:round;stroke-linejoin:round;stroke-miterlimit:4;stroke-dasharray:none;stroke-dashoffset:0;stroke-opacity:0;color-rendering:auto;image-rendering:auto;shape-rendering:auto;text-rendering:auto;enable-background:accumulate;stop-color:#000" d="M4.002 16.123a2.646 2.646 0 0 0-.746.106 2.646 2.646 0 0 0-1.802 3.278L4.2 28.948a2.646 2.646 0 0 0 1.634 1.748l9.221 3.362a2.646 2.646 0 0 0 3.392-1.58 2.646 2.646 0 0 0-1.58-3.39l-7.961-2.904-2.368-8.152a2.646 2.646 0 0 0-2.535-1.91zm12.973 35.489a2.646 2.646 0 0 0-.874.16l-9.22 3.362a2.646 2.646 0 0 0-1.634 1.746l-2.745 9.443A2.646 2.646 0 0 0 4.304 69.6a2.646 2.646 0 0 0 3.278-1.8l2.37-8.153 7.961-2.903a2.646 2.646 0 0 0 1.58-3.392 2.646 2.646 0 0 0-2.518-1.739zm-.358-13.482-9.816.072a2.646 2.646 0 0 0-2.074 1.03L-.132 45.53a2.646 2.646 0 0 0 .48 3.71 2.646 2.646 0 0 0 3.71-.478l4.072-5.28 8.525-.062a2.646 2.646 0 0 0 2.628-2.666 2.646 2.646 0 0 0-2.666-2.625zm48.111-22.005a2.646 2.646 0 0 0-2.472 1.907l-2.37 8.152-7.962 2.903a2.646 2.646 0 0 0-1.578 3.392 2.646 2.646 0 0 0 3.392 1.579l9.22-3.362a2.646 2.646 0 0 0 1.635-1.746l2.743-9.443a2.646 2.646 0 0 0-1.802-3.278 2.646 2.646 0 0 0-.806-.104zm-12.97 35.487a2.646 2.646 0 0 0-2.46 1.74 2.646 2.646 0 0 0 1.581 3.39l7.96 2.904 2.37 8.153a2.646 2.646 0 0 0 3.28 1.802 2.646 2.646 0 0 0 1.802-3.278l-2.745-9.441a2.646 2.646 0 0 0-1.634-1.748l-9.22-3.362a2.646 2.646 0 0 0-.934-.16zm.418-13.482a2.646 2.646 0 0 0-2.666 2.627 2.646 2.646 0 0 0 2.627 2.664l8.525.064 4.072 5.278a2.646 2.646 0 0 0 3.711.479 2.646 2.646 0 0 0 .48-3.71l-4.86-6.3a2.646 2.646 0 0 0-2.076-1.03z"/><path style="fill:#6595a8;fill-opacity:1;stroke:#000;stroke-width:5.29167;stroke-linecap:round;stroke-linejoin:round;stroke-miterlimit:4;stroke-dasharray:none;stroke-opacity:1" d="M47.917 25.945H21.016c-3.226 0-5.855 9.396-5.855 15.077 0 11.608 8.643 21.018 19.305 21.018 10.663 0 19.306-9.41 19.306-21.018 0-5.68-3.03-15.077-5.855-15.077z"/><path style="fill:none;stroke:#000;stroke-width:3.92544;stroke-linecap:round;stroke-linejoin:miter;stroke-miterlimit:4;stroke-dasharray:none;stroke-opacity:1" d="M34.47 33.168v26.878"/></g><text xml:space="preserve" style="font-style:normal;font-variant:normal;font-weight:600;font-stretch:normal;font-size:25.4001px;line-height:1.25;font-family:Catamaran;-inkscape-font-specification:'Catamaran Semi-Bold';fill:#000;stroke-width:.264585" x="70.749" y="32.83"><tspan x="70.749" y="32.83" style="font-style:normal;font-variant:normal;font-weight:600;font-stretch:normal;font-size:25.4001px;font-family:Catamaran;-inkscape-font-specification:'Catamaran Semi-Bold';fill:#000;stroke-width:.264585">BUG TRACKER</tspan></text><text xml:space="preserve" style="font-style:normal;font-variant:normal;font-weight:400;font-stretch:normal;font-size:15.5223px;line-height:1.25;font-family:Catamaran;-inkscape-font-specification:Catamaran;fill:#000;stroke-width:.264585" x="82.115" y="51.722"><tspan x="82.115" y="51.722" style="font-style:normal;font-variant:normal;font-weight:400;font-stretch:normal;font-size:15.5223px;font-family:Catamaran;-inkscape-font-specification:Catamaran;fill:#000;stroke-width:.264585">created by Cody Price</tspan></text></svg>